<?xml version="1.0" standalone="no"?>
<!DOCTYPE svg PUBLIC "-//W3C//DTD SVG 20010904//EN"
 "http://www.w3.org/TR/2001/REC-SVG-20010904/DTD/svg10.dtd">
<svg version="1.0" xmlns="http://www.w3.org/2000/svg"
 width="16.000000pt" height="16.000000pt" viewBox="0 0 16.000000 16.000000"
 preserveAspectRatio="xMidYMid meet">
<metadata>
Created by potrace 1.11, written by Peter Selinger 2001-2013
</metadata>
<g transform="translate(0.000000,16.000000) scale(0.006250,-0.006250)"
fill="#000000" stroke="none">
<path d="M1200 2272 c-30 -15 -199 -150 -305 -243 -29 -26 -321 -269 -395
-329 -20 -16 -52 -42 -71 -58 -195 -164 -364 -305 -378 -315 -28 -20 -50 -58
-44 -76 10 -25 103 -135 127 -148 15 -8 26 -8 40 -1 16 9 957 788 976 808 3 3
33 29 68 57 l62 52 544 -453 c299 -250 551 -458 561 -464 30 -16 52 -3 113 72
44 53 58 78 55 96 -2 14 -7 27 -11 31 -4 3 -74 62 -157 130 -82 68 -160 132
-172 142 -21 19 -21 23 -21 342 0 177 -3 332 -6 343 -9 27 -18 29 -208 28
-118 -1 -171 -5 -179 -13 -9 -9 -13 -60 -13 -177 0 -147 -2 -164 -16 -153 -18
14 -133 110 -140 117 -3 3 -26 22 -52 43 -26 21 -53 43 -60 50 -41 40 -138
112 -165 123 -45 19 -112 17 -153 -4z"/>
<path d="M1200 1816 c-41 -34 -205 -170 -365 -301 -159 -132 -292 -242 -295
-245 -3 -3 -25 -21 -50 -40 -25 -19 -58 -47 -75 -62 -16 -15 -33 -28 -37 -28
-13 0 -10 -796 3 -823 23 -51 39 -54 374 -51 171 1 313 2 317 3 4 0 7 110 7
244 0 133 0 268 0 300 l1 57 200 0 200 -1 1 -27 c0 -15 1 -150 1 -299 1 -241
3 -273 17 -277 30 -7 616 0 639 8 51 17 53 36 54 463 0 217 -4 398 -8 402 -5
4 -72 59 -149 122 -77 63 -145 118 -151 124 -6 5 -28 24 -48 40 -21 17 -47 37
-57 46 -73 62 -491 404 -497 406 -4 1 -41 -26 -82 -61z"/>
</g>
</svg>
